<svg width="16" height="16" viewBox="0 0 16 16" fill="none" xmlns="http://www.w3.org/2000/svg">
<path opacity="0.8" fill-rule="evenodd" clip-rule="evenodd" d="M6.50018 2.5C8.70971 2.5 10.5008 4.29107 10.5008 6.49897C10.5008 8.7081 8.70922 10.4994 6.50018 10.4994C4.29101 10.4994 2.5 8.70838 2.5 6.49897C2.5 4.2908 4.29052 2.5 6.50018 2.5ZM6.50018 0.5C9.81365 0.5 12.5008 3.18587 12.5008 6.49897C12.5008 7.79453 12.0901 8.99422 11.3918 9.97498L15.2056 13.7899L13.7911 15.2039L9.97777 11.3894C8.99665 12.0883 7.79634 12.4994 6.50018 12.4994C3.18631 12.4994 0.5 9.81281 0.5 6.49897C0.5 3.18587 3.18631 0.5 6.50018 0.5Z" fill="#97A3B4"/>
</svg>
